<svg height="512" viewBox="0 0 512 512" width="512" xmlns="http://www.w3.org/2000/svg"><g id="Flat"><path d="m152 216-17.373-17.373a32 32 0 0 1 0-45.254l82.746-82.746a32 32 0 0 1 45.254 0l17.373 17.373z" fill="#f98500"/><path d="m328.26 299.1-24.26 84.9-40 16 24-96-9.22-2.64-40.63-11.6-27.15-8.093 13-57.667 44 18.86 27.73 11.88 14.36 6.16a32 32 0 0 1 18.17 38.2z" fill="#3b495e"/><path d="m295.73 254.74-16.95 46.62-40.63-11.6 29.85-46.9z" fill="#313b4c"/><path d="m296 136 24-24 24 16 25.68-29.96a33.823 33.823 0 0 0 -47.33-48l-64.42 53.68" fill="#fec9a3"/><path d="m48 16h16v176h-16z" fill="#c7c7c5"/><path d="m293.93 181.73-69.93 58.27 9.72 8.33 26.8 22.97 2.94 2.52a28.7 28.7 0 0 1 7.33 33.92l-46.69 100.04-41.81 15.46 41.71-111.24-16.84-6.74-17.08-6.83a73.282 73.282 0 0 1 -46.05-69.85q.045-2.07.21-4.14a74.625 74.625 0 0 1 21.93-46.61l49.83-49.83-32-24-86.09 31.76-10.1 3.72a32 32 0 1 1 -19.79-33.14l16.03-7.54 89.22-41.98a31.985 31.985 0 0 1 34.45 4.65l40.28 34.53 48 40a31 31 0 0 1 -2.07 45.73z" fill="#fec9a3"/><path d="m263.46 273.82-2.94-2.52-26.8-22.97-9.72-8.33-79.97-11.42a73.308 73.308 0 0 0 46.05 69.85l17.08 6.83 16.84 6.74-41.71 111.24 41.81-15.46 46.69-100.04a28.7 28.7 0 0 0 -7.33-33.92z" fill="#4d5e78"/><ellipse cx="56" cy="56" fill="#d6d6d4" rx="24" ry="16"/><path d="m357.728 75.142-12.789-9.617-16.745 22.268-11.103-44.081-15.515 3.909 21.242 84.954 15.515-3.908-5.116-20.932z" fill="#4d5e78"/><path d="m293.93 181.73-33.93 28.27-19.68 16.4-16.32 13.6-19.56-2.79-18.39-2.63-42.02-6q.045-2.07.21-4.14a72.659 72.659 0 0 1 8.84-29.2 77.015 77.015 0 0 1 13.09-17.41l9.83-9.83 40-40-32-24-86.09 31.76-13.86-36.96 89.22-41.98a31.985 31.985 0 0 1 34.45 4.65l40.28 34.53 29.34 24.45.08.07 12.21 10.17.01.01 6.36 5.3a31 31 0 0 1 -2.07 45.73z" fill="#f35244"/><path d="m289.63 130.69-85.19 106.52-18.39-2.63 91.29-114.13.08.07z" fill="#de4132"/><path d="m184 368h56l-24 56-64 24z" fill="#3b495e"/><path d="m320 336-56 8-16 64 64-24z" fill="#313b4c"/><path d="m260 210-19.68 16.4-27.8-9.93-59.44-21.23a77.015 77.015 0 0 1 13.09-17.41l9.83-9.83 50.46 25.23z" fill="#4d5e78"/><path d="m226.46 193.23-13.94 23.24-59.44-21.23a77.015 77.015 0 0 1 13.09-17.41l9.83-9.83z" fill="#556a8a"/><path d="m248 96 24-24 40 48-16 16z" fill="#de4132"/><path d="m134.627 153.373 41.373-1.373-8-32z" fill="#ffb531"/><path d="m260.52 271.3-53.36 33.96-17.08-6.83a73.215 73.215 0 0 1 -20.68-12.58l64.32-37.52z" fill="#3b495e"/><path d="m408.66 312.129a16.137 16.137 0 0 0 -15.353 6.854l-8.143 11.928a48.914 48.914 0 0 1 -24.539 18.646l-277.663 95.329a16.025 16.025 0 0 0 -10.047 20.484 16.4 16.4 0 0 0 20.806 9.891l283.513-97.339a57.1 57.1 0 0 0 27.859-20.653l14.623-20.36a15.747 15.747 0 0 0 -11.056-24.78z" fill="#c7c7c5"/><path d="m475.054 325.472a17.063 17.063 0 0 0 -18.057 6.9l-7.084 10.377a48.918 48.918 0 0 1 -24.539 18.651l-277.663 95.324a16.023 16.023 0 0 0 -10.047 20.484 16.4 16.4 0 0 0 20.805 9.891l284.825-97.789a57.149 57.149 0 0 0 26.349-18.648l14.79-18.769a16.592 16.592 0 0 0 -9.379-26.421z" fill="#d6d6d4"/><path d="m194.675 162.669a72.735 72.735 0 0 1 -21.205-3.08 8 8 0 0 1 5.039-15.185c.419.134 23.67 7.432 40.861-5.046 13.689-9.936 20.63-29.907 20.63-59.358a8 8 0 0 1 16 0c0 34.956-9.208 59.317-27.37 72.407-11.197 8.071-23.691 10.262-33.955 10.262z" fill="#4d5e78"/><path d="m387.42 83.24a69.742 69.742 0 0 1 -7.51 22.75 4.008 4.008 0 0 1 -3.47 2.01 4.016 4.016 0 0 1 -2.35-.76l-34.8-25.24-37.95-27.53a4.059 4.059 0 0 1 -1.61-2.67 4 4 0 0 1 .79-3.01c.58-.75 14.28-18.21 35.21-20.54 12.34-1.37 24.44 2.79 35.99 12.36a45.7 45.7 0 0 1 10.3 11.93c5.19 8.78 7.04 19.17 5.4 30.7z" fill="#ffb531"/><path d="m387.42 83.24a69.742 69.742 0 0 1 -7.51 22.75 4.008 4.008 0 0 1 -3.47 2.01 4.016 4.016 0 0 1 -2.35-.76l-34.8-25.24a193.085 193.085 0 0 0 42.73-29.46c5.19 8.78 7.04 19.17 5.4 30.7z" fill="#fcac1f"/></g></svg>