<?xml version="1.0" encoding="iso-8859-1"?>
<!-- Generator: Adobe Illustrator 19.0.0, SVG Export Plug-In . SVG Version: 6.00 Build 0)  -->
<svg version="1.1" id="Layer_1" xmlns="http://www.w3.org/2000/svg" xmlns:xlink="http://www.w3.org/1999/xlink" x="0px" y="0px"
	 viewBox="0 0 512.001 512.001" style="enable-background:new 0 0 512.001 512.001;" xml:space="preserve">
<path style="fill:#149334;" d="M512,432.285c0,10.158-8.236,18.395-18.396,18.395H18.396C8.236,450.679,0,442.443,0,432.285V79.709
	C0,69.55,8.236,61.314,18.396,61.314h475.209c10.159,0,18.396,8.236,18.396,18.395v352.576H512z"/>
<path style="fill:#0D7C24;" d="M142.075,185.425c0-44.516,10.275-86.627,28.564-124.11H18.396C8.236,61.315,0,69.55,0,79.709
	v352.576c0,10.158,8.236,18.395,18.396,18.395H325.54C218.339,410.268,142.075,306.756,142.075,185.425z"/>
<path style="fill:#3BBC56;" d="M493.604,61.315H256V450.68h237.604c10.159,0,18.396-8.236,18.396-18.395V79.709
	C512,69.55,503.764,61.315,493.604,61.315z"/>
<path style="fill:#29A53D;" d="M256,450.679h69.539c-25.064-9.448-48.436-22.348-69.539-38.116V450.679z"/>
<g>
	<path style="fill:#5CCC2E;" d="M512,136.506h-83.75c-6.237,0-11.292,5.055-11.292,11.29v216.402c0,6.232,5.055,11.29,11.292,11.29
		H512V136.506z"/>
	<path style="fill:#5CCC2E;" d="M0,136.506h83.75c6.235,0,11.292,5.055,11.292,11.29v216.402c0,6.232-5.057,11.29-11.292,11.29H0
		V136.506z"/>
	<path style="fill:#5CCC2E;" d="M341.078,255.997c0,46.984-38.091,85.078-85.078,85.078c-46.986,0-85.078-38.094-85.078-85.078
		c0-46.988,38.092-85.078,85.078-85.078C302.987,170.919,341.078,209.009,341.078,255.997z"/>
</g>
<g>
	<path style="fill:#9AEFA8;" d="M409.23,147.796v216.402c0,10.486,8.533,19.017,19.02,19.017H512v-15.454h-83.75
		c-1.966,0-3.565-1.599-3.565-3.563V147.796c0-1.965,1.6-3.563,3.565-3.563H512v-15.454h-83.75
		C417.764,128.778,409.23,137.31,409.23,147.796z"/>
	<path style="fill:#9AEFA8;" d="M83.75,128.778H0v15.454h83.75c1.966,0,3.565,1.599,3.565,3.563v216.402
		c0,1.965-1.6,3.563-3.565,3.563H0v15.454h83.75c10.486,0,19.02-8.531,19.02-19.017V147.796
		C102.77,137.31,94.236,128.778,83.75,128.778z"/>
	<path style="fill:#9AEFA8;" d="M256,348.801c-51.173,0-92.805-41.633-92.805-92.805c0-51.173,41.632-92.805,92.805-92.805
		s92.805,41.632,92.805,92.805S307.173,348.801,256,348.801z M256,178.646c-42.651,0-77.351,34.7-77.351,77.351
		s34.7,77.35,77.351,77.35s77.351-34.699,77.351-77.351S298.651,178.646,256,178.646z"/>
	<circle style="fill:#9AEFA8;" cx="256" cy="255.997" r="16.566"/>
	<rect x="247.99" y="61.317" style="fill:#9AEFA8;" width="16.02" height="389.37"/>
</g>
<g>
</g>
<g>
</g>
<g>
</g>
<g>
</g>
<g>
</g>
<g>
</g>
<g>
</g>
<g>
</g>
<g>
</g>
<g>
</g>
<g>
</g>
<g>
</g>
<g>
</g>
<g>
</g>
<g>
</g>
</svg>
