<svg id="Flat" height="512" viewBox="0 0 512 512" width="512" xmlns="http://www.w3.org/2000/svg"><path d="m448 112h48v176h-48z" fill="#2a70ab"/><path d="m416 120h32v144h-32z" fill="#4db7e5"/><path d="m416 144h-32l-56-24h-56v144h88l24-24h32z" fill="#ff9f9b"/><path d="m232 24-175.998 93.865 144 264 175.998-93.865z" fill="#448703"/><path d="m202.525 253.962-55.965 29.878-30.32-55.52 56.009-29.863z" fill="#f98500"/><path d="m232 24-120 64 144 264 120-64z" fill="#95cb37"/><g fill="#6dbb24"><path d="m168.48 57.91992a63.94183 63.94183 0 0 1 -25.83984 86.23975l-30.64016-56.15967z"/><path d="m232 88a63.78053 63.78053 0 0 1 -56.48-33.91992l56.48-30.08008 30.64014 56.15967a63.63656 63.63656 0 0 1 -30.64014 7.84033z"/><path d="m312.48 321.91992-56.48 30.08008-30.64014-56.16016a63.92628 63.92628 0 0 1 87.12014 26.08008z"/><path d="m376 288-56.48 30.08008a63.94241 63.94241 0 0 1 25.83984-86.24024z"/></g><path d="m322.48 189.92-119.955 64.042-30.276-55.505 119.991-63.977z" fill="#fca713"/><path d="m272 184a22.62742 22.62742 0 0 0 32 32l32-32a45.25531 45.25531 0 0 0 64 0l16-16v-24h-32l-56-24h-43.63623l18.14259 33.49364z" fill="#ffdad2"/><path d="m16 344h32v144h-32z" fill="#2a70ab"/><path d="m48 360h32v112h-32z" fill="#4db7e5"/><path d="m176 384 8 8h48a24 24 0 0 1 0 48h128a24 24 0 0 1 0 48h-174.311a190.53218 190.53218 0 0 1 -105.689-32v-72a67.88207 67.88207 0 0 1 96 0z" fill="#ffdad2"/><path d="m160 448a8.00039 8.00039 0 0 0 8 8h64a8 8 0 0 0 0-16h-64a8.00039 8.00039 0 0 0 -8 8z" fill="#ff9f9b"/></svg>